<mxfile host="app.diagrams.net" modified="2021-05-28T10:42:51.684Z" agent="5.0 (Windows NT 10.0; Win64; x64) AppleWebKit/537.36 (KHTML, like Gecko) Chrome/90.0.4430.212 Safari/537.36" etag="rLxp2OLIGWH_oAA_sDqu" version="14.7.2" type="github">
  <diagram id="UJ1HX8Y83SZyNs6LG_6m" name="第 1 页">
    <mxGraphModel dx="2249" dy="762" grid="1" gridSize="10" guides="1" tooltips="1" connect="1" arrows="1" fold="1" page="1" pageScale="1" pageWidth="827" pageHeight="1169" math="0" shadow="0">
      <root>
        <mxCell id="0" />
        <mxCell id="1" parent="0" />
        <mxCell id="0ZUttyPN01K_ydT-22Pd-4" value="" style="edgeStyle=orthogonalEdgeStyle;rounded=0;orthogonalLoop=1;jettySize=auto;html=1;fontSize=26;fontColor=#FF6666;" edge="1" parent="1" source="0ZUttyPN01K_ydT-22Pd-2" target="0ZUttyPN01K_ydT-22Pd-3">
          <mxGeometry relative="1" as="geometry" />
        </mxCell>
        <mxCell id="0ZUttyPN01K_ydT-22Pd-2" value="沭阳出发" style="rounded=1;whiteSpace=wrap;html=1;strokeWidth=2;fillWeight=4;hachureGap=8;hachureAngle=45;fillColor=#dae8fc;sketch=1;strokeColor=#6c8ebf;fontSize=26;fontColor=#FF6666;" vertex="1" parent="1">
          <mxGeometry x="30" y="410" width="120" height="60" as="geometry" />
        </mxCell>
        <mxCell id="0ZUttyPN01K_ydT-22Pd-6" value="" style="edgeStyle=orthogonalEdgeStyle;rounded=0;orthogonalLoop=1;jettySize=auto;html=1;fontSize=26;fontColor=#FF6666;" edge="1" parent="1" source="0ZUttyPN01K_ydT-22Pd-3" target="0ZUttyPN01K_ydT-22Pd-5">
          <mxGeometry relative="1" as="geometry" />
        </mxCell>
        <mxCell id="0ZUttyPN01K_ydT-22Pd-3" value="K148" style="whiteSpace=wrap;html=1;rounded=1;fontSize=26;fontColor=#FF6666;strokeColor=#6c8ebf;strokeWidth=2;fillColor=#dae8fc;sketch=1;fillWeight=4;hachureGap=8;hachureAngle=45;" vertex="1" parent="1">
          <mxGeometry x="230" y="410" width="120" height="60" as="geometry" />
        </mxCell>
        <mxCell id="0ZUttyPN01K_ydT-22Pd-8" value="" style="edgeStyle=orthogonalEdgeStyle;rounded=0;orthogonalLoop=1;jettySize=auto;html=1;fontSize=26;fontColor=#FF6666;" edge="1" parent="1" source="0ZUttyPN01K_ydT-22Pd-5" target="0ZUttyPN01K_ydT-22Pd-7">
          <mxGeometry relative="1" as="geometry" />
        </mxCell>
        <mxCell id="0ZUttyPN01K_ydT-22Pd-5" value="郑州站" style="whiteSpace=wrap;html=1;rounded=1;fontSize=26;strokeColor=#82b366;strokeWidth=2;fillColor=#d5e8d4;sketch=1;fillWeight=4;hachureGap=8;hachureAngle=45;" vertex="1" parent="1">
          <mxGeometry x="430" y="410" width="120" height="60" as="geometry" />
        </mxCell>
        <mxCell id="0ZUttyPN01K_ydT-22Pd-24" value="" style="edgeStyle=orthogonalEdgeStyle;rounded=0;orthogonalLoop=1;jettySize=auto;html=1;fontSize=26;fontColor=#FF6666;" edge="1" parent="1" source="0ZUttyPN01K_ydT-22Pd-7" target="0ZUttyPN01K_ydT-22Pd-22">
          <mxGeometry relative="1" as="geometry" />
        </mxCell>
        <mxCell id="0ZUttyPN01K_ydT-22Pd-7" value="郑州汽车中心站" style="whiteSpace=wrap;html=1;rounded=1;fontSize=26;strokeColor=#82b366;strokeWidth=2;fillColor=#d5e8d4;sketch=1;fillWeight=4;hachureGap=8;hachureAngle=45;" vertex="1" parent="1">
          <mxGeometry x="630" y="405" width="140" height="70" as="geometry" />
        </mxCell>
        <mxCell id="0ZUttyPN01K_ydT-22Pd-9" value="两者紧挨着，同一位置" style="text;html=1;resizable=0;autosize=1;align=center;verticalAlign=middle;points=[];fillColor=none;strokeColor=none;rounded=0;fontSize=26;fontColor=#FF00FF;" vertex="1" parent="1">
          <mxGeometry x="470" y="350" width="280" height="40" as="geometry" />
        </mxCell>
        <mxCell id="0ZUttyPN01K_ydT-22Pd-10" value="时刻表" style="text;html=1;resizable=0;autosize=1;align=center;verticalAlign=middle;points=[];fillColor=none;strokeColor=none;rounded=0;fontSize=26;fontColor=#FF6666;" vertex="1" parent="1">
          <mxGeometry x="-100" y="555" width="90" height="40" as="geometry" />
        </mxCell>
        <mxCell id="0ZUttyPN01K_ydT-22Pd-11" value="20:40" style="text;html=1;resizable=0;autosize=1;align=center;verticalAlign=middle;points=[];fillColor=none;strokeColor=none;rounded=0;fontSize=26;fontColor=#FF6666;" vertex="1" parent="1">
          <mxGeometry x="50" y="555" width="80" height="40" as="geometry" />
        </mxCell>
        <mxCell id="0ZUttyPN01K_ydT-22Pd-12" value="04:18&lt;font style=&quot;font-size: 16px&quot;&gt;+1天&lt;/font&gt;" style="text;html=1;resizable=0;autosize=1;align=center;verticalAlign=middle;points=[];fillColor=none;strokeColor=none;rounded=0;fontSize=26;fontColor=#FF6666;" vertex="1" parent="1">
          <mxGeometry x="440" y="555" width="110" height="40" as="geometry" />
        </mxCell>
        <mxCell id="0ZUttyPN01K_ydT-22Pd-13" value="06:50" style="text;html=1;resizable=0;autosize=1;align=center;verticalAlign=middle;points=[];fillColor=none;strokeColor=none;rounded=0;fontSize=26;fontColor=#FF6666;" vertex="1" parent="1">
          <mxGeometry x="670" y="555" width="80" height="40" as="geometry" />
        </mxCell>
        <mxCell id="0ZUttyPN01K_ydT-22Pd-14" value="价格" style="text;html=1;resizable=0;autosize=1;align=center;verticalAlign=middle;points=[];fillColor=none;strokeColor=none;rounded=0;fontSize=26;fontColor=#FF6666;" vertex="1" parent="1">
          <mxGeometry x="-90" y="641" width="70" height="40" as="geometry" />
        </mxCell>
        <mxCell id="0ZUttyPN01K_ydT-22Pd-15" value="硬座：72&lt;br&gt;硬卧：129（推荐）" style="text;html=1;resizable=0;autosize=1;align=left;verticalAlign=middle;points=[];fillColor=none;strokeColor=none;rounded=0;fontSize=26;fontColor=#FF6666;" vertex="1" parent="1">
          <mxGeometry x="195" y="626" width="240" height="70" as="geometry" />
        </mxCell>
        <mxCell id="0ZUttyPN01K_ydT-22Pd-16" value="" style="rounded=0;whiteSpace=wrap;html=1;fontSize=26;fontColor=#FF6666;fillColor=none;strokeColor=#3333FF;strokeWidth=7;dashed=1;" vertex="1" parent="1">
          <mxGeometry x="413.5" y="340" width="386" height="150" as="geometry" />
        </mxCell>
        <mxCell id="0ZUttyPN01K_ydT-22Pd-17" value="40元" style="text;html=1;resizable=0;autosize=1;align=center;verticalAlign=middle;points=[];fillColor=none;strokeColor=none;rounded=0;fontSize=26;fontColor=#FF6666;" vertex="1" parent="1">
          <mxGeometry x="675" y="641" width="70" height="40" as="geometry" />
        </mxCell>
        <mxCell id="0ZUttyPN01K_ydT-22Pd-19" value="" style="endArrow=none;dashed=1;html=1;dashPattern=1 3;strokeWidth=2;fontSize=26;fontColor=#FF6666;" edge="1" parent="1">
          <mxGeometry width="50" height="50" relative="1" as="geometry">
            <mxPoint x="-100" y="611" as="sourcePoint" />
            <mxPoint x="980" y="611" as="targetPoint" />
          </mxGeometry>
        </mxCell>
        <mxCell id="0ZUttyPN01K_ydT-22Pd-20" value="" style="endArrow=none;dashed=1;html=1;dashPattern=1 3;strokeWidth=2;fontSize=26;fontColor=#FF6666;" edge="1" parent="1">
          <mxGeometry width="50" height="50" relative="1" as="geometry">
            <mxPoint x="-100" y="721" as="sourcePoint" />
            <mxPoint x="980" y="721" as="targetPoint" />
          </mxGeometry>
        </mxCell>
        <mxCell id="0ZUttyPN01K_ydT-22Pd-22" value="到达周口" style="whiteSpace=wrap;html=1;rounded=1;fontSize=26;fontColor=#FF6666;strokeColor=#6c8ebf;strokeWidth=2;fillColor=#dae8fc;sketch=1;fillWeight=4;hachureGap=8;hachureAngle=45;" vertex="1" parent="1">
          <mxGeometry x="835" y="410" width="120" height="60" as="geometry" />
        </mxCell>
        <mxCell id="0ZUttyPN01K_ydT-22Pd-25" value="正午" style="text;html=1;resizable=0;autosize=1;align=center;verticalAlign=middle;points=[];fillColor=none;strokeColor=none;rounded=0;fontSize=26;fontColor=#FF6666;" vertex="1" parent="1">
          <mxGeometry x="860" y="555" width="70" height="40" as="geometry" />
        </mxCell>
        <mxCell id="0ZUttyPN01K_ydT-22Pd-26" value="" style="endArrow=none;dashed=1;html=1;dashPattern=1 3;strokeWidth=2;fontSize=26;fontColor=#FF6666;" edge="1" parent="1">
          <mxGeometry width="50" height="50" relative="1" as="geometry">
            <mxPoint x="-100" y="530" as="sourcePoint" />
            <mxPoint x="980" y="530" as="targetPoint" />
          </mxGeometry>
        </mxCell>
        <mxCell id="0ZUttyPN01K_ydT-22Pd-27" value="" style="endArrow=none;dashed=1;html=1;dashPattern=1 3;strokeWidth=2;fontSize=26;fontColor=#FF6666;" edge="1" parent="1">
          <mxGeometry width="50" height="50" relative="1" as="geometry">
            <mxPoint y="720" as="sourcePoint" />
            <mxPoint y="310" as="targetPoint" />
          </mxGeometry>
        </mxCell>
        <mxCell id="0ZUttyPN01K_ydT-22Pd-28" value="流程图" style="text;html=1;resizable=0;autosize=1;align=center;verticalAlign=middle;points=[];fillColor=none;strokeColor=none;rounded=0;fontSize=26;fontColor=#FF6666;" vertex="1" parent="1">
          <mxGeometry x="-100" y="420" width="90" height="40" as="geometry" />
        </mxCell>
        <mxCell id="0ZUttyPN01K_ydT-22Pd-29" value="" style="endArrow=none;dashed=1;html=1;dashPattern=1 3;strokeWidth=2;fontSize=26;fontColor=#FF6666;" edge="1" parent="1">
          <mxGeometry width="50" height="50" relative="1" as="geometry">
            <mxPoint x="170" y="720" as="sourcePoint" />
            <mxPoint x="170" y="530" as="targetPoint" />
          </mxGeometry>
        </mxCell>
        <mxCell id="0ZUttyPN01K_ydT-22Pd-30" value="" style="endArrow=none;dashed=1;html=1;dashPattern=1 3;strokeWidth=2;fontSize=26;fontColor=#FF6666;" edge="1" parent="1">
          <mxGeometry width="50" height="50" relative="1" as="geometry">
            <mxPoint x="420" y="720" as="sourcePoint" />
            <mxPoint x="420" y="530" as="targetPoint" />
          </mxGeometry>
        </mxCell>
        <mxCell id="0ZUttyPN01K_ydT-22Pd-31" value="" style="endArrow=none;dashed=1;html=1;dashPattern=1 3;strokeWidth=2;fontSize=26;fontColor=#FF6666;" edge="1" parent="1">
          <mxGeometry width="50" height="50" relative="1" as="geometry">
            <mxPoint x="606" y="720" as="sourcePoint" />
            <mxPoint x="606" y="530" as="targetPoint" />
          </mxGeometry>
        </mxCell>
        <mxCell id="0ZUttyPN01K_ydT-22Pd-32" value="" style="endArrow=none;dashed=1;html=1;dashPattern=1 3;strokeWidth=2;fontSize=26;fontColor=#FF6666;" edge="1" parent="1">
          <mxGeometry width="50" height="50" relative="1" as="geometry">
            <mxPoint x="799.5" y="720" as="sourcePoint" />
            <mxPoint x="799.5" y="530" as="targetPoint" />
          </mxGeometry>
        </mxCell>
        <mxCell id="0ZUttyPN01K_ydT-22Pd-33" value="" style="endArrow=none;dashed=1;html=1;dashPattern=1 3;strokeWidth=2;fontSize=26;fontColor=#FF6666;" edge="1" parent="1">
          <mxGeometry width="50" height="50" relative="1" as="geometry">
            <mxPoint x="980" y="720" as="sourcePoint" />
            <mxPoint x="980" y="310" as="targetPoint" />
          </mxGeometry>
        </mxCell>
        <mxCell id="0ZUttyPN01K_ydT-22Pd-34" value="" style="endArrow=none;dashed=1;html=1;dashPattern=1 3;strokeWidth=2;fontSize=26;fontColor=#FF6666;" edge="1" parent="1">
          <mxGeometry width="50" height="50" relative="1" as="geometry">
            <mxPoint x="-90" y="310" as="sourcePoint" />
            <mxPoint x="990" y="310" as="targetPoint" />
          </mxGeometry>
        </mxCell>
        <mxCell id="0ZUttyPN01K_ydT-22Pd-35" value="" style="endArrow=none;dashed=1;html=1;dashPattern=1 3;strokeWidth=2;fontSize=26;fontColor=#FF6666;" edge="1" parent="1">
          <mxGeometry width="50" height="50" relative="1" as="geometry">
            <mxPoint x="-100" y="720" as="sourcePoint" />
            <mxPoint x="-100" y="310" as="targetPoint" />
          </mxGeometry>
        </mxCell>
        <mxCell id="0ZUttyPN01K_ydT-22Pd-36" value="沭阳 到 周口路线规划" style="text;html=1;resizable=0;autosize=1;align=center;verticalAlign=middle;points=[];fillColor=none;strokeColor=none;rounded=0;fontSize=32;fontColor=#B5739D;" vertex="1" parent="1">
          <mxGeometry x="330" y="210" width="320" height="40" as="geometry" />
        </mxCell>
      </root>
    </mxGraphModel>
  </diagram>
</mxfile>
